# xmcd
#
# Track frame offsets: 
#        150
#        10359
#        29264
#        51613
#        76059
#        100263
#        113639
#        139745
#        162980
#        184759
#        206173
#        218423
#        236410
#        249371
#        269709
#        296554
#        319117
#        343403
#
# Disc length: 4751 seconds
#
# Revision: 1
# Processed by: cddbd v1.5.2PL0 Copyright (c) Steve Scherf et al.
# Submitted via: ExactAudioCopyFreeDBPlugin 1.0
#
DISCID=0b128d12
DTITLE=Various Artist - Tau Analyzer
DYEAR=2007
DGENRE=Blues
TTITLE0=J.J. Cale - That Kind Of Thing
TTITLE1=Keb' Mo' - Peace Of Mind
TTITLE2=Willie Dixon - Spoonful
TTITLE3=Muddy Waters - Mannish Boy
TTITLE4=Stevie Ray Vaughan and Double Trouble - Texas Flood
TTITLE5=Taj Mahal - Statesboro Blues
TTITLE6=Gary Moore - Can't Quit You Baby
TTITLE7=John Mayall and "The Bluesbreakers", Featuring Buddy Guy - Could
TTITLE7=Cry
TTITLE8=Champion Jack Dupree - Income Tax
TTITLE9=The Electric Flag - Goin' Down Slow
TTITLE10=Elmore James - The Sky Is Crying
TTITLE11=Janis Joplin, Big Brother and The Holding Company - Summertime
TTITLE12=Fleetwood Mac - Dust My Broom
TTITLE13=Buddy Guy - Where Is The Next One Coming From
TTITLE14=Santana - For Salvador
TTITLE15=Chicken Shack - King Of The World
TTITLE16=Bacon Fat - She's A Wrong Woman (Remastered)
TTITLE17=Robert Johnson - Come On In My Kitchen
EXTD=
EXTT0=
EXTT1=
EXTT2=
EXTT3=
EXTT4=
EXTT5=
EXTT6=
EXTT7=
EXTT8=
EXTT9=
EXTT10=
EXTT11=
EXTT12=
EXTT13=
EXTT14=
EXTT15=
EXTT16=
EXTT17=
PLAYORDER=
